<svg width="1850" height="450" viewBox="0 0 1850 450" fill="none" xmlns="http://www.w3.org/2000/svg">
<g clip-path="url(#clip0_575_2469)" filter="url(#filter0_bi_575_2469)">
<g filter="url(#filter1_b_575_2469)">
<circle cx="225" cy="225" r="225" fill="white"/>
<circle cx="225" cy="225" r="213" stroke="#2C2C2C" stroke-width="24"/>
</g>
<g filter="url(#filter2_d_575_2469)">
<circle cx="225.5" cy="224.5" r="212.5" fill="white"/>
<circle cx="225.5" cy="224.5" r="209.5" stroke="url(#paint0_radial_575_2469)" stroke-width="6"/>
</g>
<circle cx="225.5" cy="224.5" r="212" stroke="#555555" stroke-opacity="0.8"/>
</g>
<g clip-path="url(#clip1_575_2469)" filter="url(#filter3_bi_575_2469)">
<g filter="url(#filter4_b_575_2469)">
<circle cx="925" cy="225" r="225" fill="white"/>
<circle cx="925" cy="225" r="213" stroke="#2C2C2C" stroke-width="24"/>
</g>
<g filter="url(#filter5_d_575_2469)">
<circle cx="925.5" cy="224.5" r="212.5" fill="white"/>
<circle cx="925.5" cy="224.5" r="209.5" stroke="url(#paint1_radial_575_2469)" stroke-width="6"/>
</g>
<circle cx="925.5" cy="224.5" r="212" stroke="#555555" stroke-opacity="0.8"/>
</g>
<mask id="mask0_575_2469" style="mask-type:luminance" maskUnits="userSpaceOnUse" x="790" y="107" width="270" height="235">
<path d="M1060 107H790V342H1060V107Z" fill="white"/>
</mask>
<g mask="url(#mask0_575_2469)">
<g filter="url(#filter6_d_575_2469)">
<mask id="mask1_575_2469" style="mask-type:luminance" maskUnits="userSpaceOnUse" x="790" y="107" width="270" height="235">
<path d="M1060 107H790V342H1060V107Z" fill="white"/>
</mask>
<g mask="url(#mask1_575_2469)">
<path d="M887.836 175.819C890.969 175.819 893.509 173.302 893.509 170.196C893.509 167.091 890.969 164.574 887.836 164.574C884.703 164.574 882.164 167.091 882.164 170.196C882.164 173.302 884.703 175.819 887.836 175.819Z" fill="#080808" fill-opacity="0.95"/>
<path d="M962.996 175.819C966.13 175.819 968.669 173.302 968.669 170.196C968.669 167.091 966.13 164.574 962.996 164.574C959.864 164.574 957.324 167.091 957.324 170.196C957.324 173.302 959.864 175.819 962.996 175.819Z" fill="#080808" fill-opacity="0.95"/>
<path fill-rule="evenodd" clip-rule="evenodd" d="M952.541 213.201L953.042 222.007L943.681 218.164L952.543 213.201H952.541ZM975.421 166.599C975.421 166.599 988.912 184.994 953.979 173.975C953.979 173.975 961.605 165.815 975.421 166.599ZM957.127 196.539C968.281 209.488 966.464 231.066 966.464 231.066C963.526 226.491 955.654 223.039 955.654 223.039C959.112 207.675 957.127 196.539 957.127 196.539ZM982.891 213.326L970.183 230.418L969.448 212.763L982.891 213.323V213.326ZM981.821 220.374L984.911 244.383L971.156 233.484L981.818 220.374H981.821ZM1000.44 219.11C999.06 238.79 985.397 252.257 985.397 252.257C990.76 233.349 986.779 213.93 986.779 213.93L1000.44 219.11H1000.44ZM897.459 213.198L896.961 222.005L906.323 218.162L897.459 213.198ZM874.578 166.597C874.578 166.597 861.088 184.991 896.021 173.973C896.021 173.973 888.395 165.813 874.578 166.597ZM892.876 196.536C881.722 209.485 883.538 231.064 883.538 231.064C886.477 226.489 894.346 223.037 894.346 223.037C890.888 207.672 892.876 196.536 892.876 196.536ZM867.109 213.323L879.819 230.415L880.555 212.76L867.109 213.321V213.323ZM868.179 220.371L865.086 244.381L878.84 233.482L868.179 220.371ZM849.557 219.107C850.941 238.786 864.603 252.254 864.603 252.254C859.243 233.346 863.22 213.928 863.22 213.928L849.557 219.107ZM925.001 152.775C925.001 152.775 964.512 108.578 992.871 140C1011.7 102.625 1028.66 175.698 1034.72 179.189C1007.18 172.55 1001.01 118.271 949.813 153.812C1000.39 129.284 1001.49 174.494 1013.1 185.75C1013.1 185.75 999.054 178.801 983.839 181.823C983.839 181.823 987.558 171.638 980.9 163.783C980.9 163.783 990.152 163.697 994.473 169.825C985.777 121.308 943.171 192.107 934.292 161.97C934.292 161.97 931.612 169.392 933.773 174.572C933.773 174.572 927.037 168.874 925.001 154.804C922.966 168.874 916.227 174.572 916.227 174.572C918.391 169.392 915.707 161.97 915.707 161.97C906.829 192.107 864.225 121.308 855.529 169.825C859.853 163.697 869.105 163.783 869.105 163.783C862.448 171.638 866.167 181.823 866.167 181.823C850.949 178.803 836.9 185.75 836.9 185.75C848.516 174.494 849.618 129.284 900.192 153.812C848.991 118.271 842.827 172.55 815.282 179.189C821.347 175.695 838.298 102.625 857.134 140C885.495 108.578 925.004 152.775 925.004 152.775H925.001ZM952.753 127.395C952.753 127.395 936.677 125.324 925.001 137.236C913.325 125.324 897.25 127.395 897.25 127.395C907.15 117.335 942.853 117.335 952.753 127.395ZM1046.23 227.857C1059.25 210.038 1047.99 200.199 1041.53 196.39C1050.55 196.218 1057.56 191.453 1060 182.811C1030.6 180.307 1040.44 92.4661 990.648 123.32C987.192 109.649 965.076 116.699 961.667 117.875C942.273 103.375 907.715 103.375 888.325 117.875C884.919 116.699 862.803 109.649 859.345 123.32C809.559 92.4712 819.398 180.312 790 182.816C792.435 191.458 799.45 196.224 808.47 196.395C802.013 200.205 790.746 210.043 803.765 227.862C727.736 379.679 1122.26 379.679 1046.23 227.862V227.857ZM1036.06 236.981C1036.06 236.981 1045.23 275.998 1009.26 300.857C1009.26 300.857 1016.7 278.587 1005.28 261.667C1005.28 261.667 1012.03 292.741 971.559 322.438C971.559 322.438 985.049 309.661 983.663 288.945C973.501 340.525 876.494 340.525 866.331 288.945C864.948 309.661 878.436 322.438 878.436 322.438C837.967 292.741 844.714 261.667 844.714 261.667C833.3 278.587 840.736 300.857 840.736 300.857C804.767 275.996 813.935 236.981 813.935 236.981C819.988 248.202 830.017 250.964 830.017 250.964C786.2 196.609 833.679 193.256 889.16 189.243C880.341 184.84 872.992 185.88 872.992 185.88C884.274 180.458 903.498 172.743 913.716 182.944C913.716 182.944 902.473 183.287 900.053 193.991C900.387 194.296 931.785 215.572 918.213 215.572L912.939 212.81L909.047 215.83C909.047 215.83 903.511 211.512 896.423 208.579C896.423 208.579 894.521 195.89 897.115 188.292C897.115 188.292 888.813 191.573 884.144 205.384C884.144 205.384 864.776 197.787 837.625 208.49C837.625 208.49 828.115 241.118 869.964 271.159C870.635 211.442 979.362 211.442 980.036 271.159C1021.88 241.121 1012.37 208.49 1012.37 208.49C985.221 197.787 965.853 205.384 965.853 205.384C961.184 191.573 952.883 188.292 952.883 188.292C955.477 195.89 953.574 208.579 953.574 208.579C946.483 211.512 940.95 215.83 940.95 215.83L937.059 212.81L931.785 215.572C918.213 215.572 949.61 194.296 949.941 193.991C947.519 183.287 936.278 182.944 936.278 182.944C946.499 172.743 965.723 180.458 977.005 185.88C977.005 185.88 969.657 184.843 960.838 189.243C1016.32 193.256 1063.8 196.609 1019.98 250.964C1019.98 250.964 1030.01 248.202 1036.06 236.981H1036.06Z" fill="#080808" fill-opacity="0.95"/>
</g>
</g>
</g>
<g clip-path="url(#clip2_575_2469)" filter="url(#filter7_bi_575_2469)">
<g filter="url(#filter8_b_575_2469)">
<circle cx="1625" cy="225" r="225" fill="white"/>
<circle cx="1625" cy="225" r="213" stroke="#2C2C2C" stroke-width="24"/>
</g>
<g filter="url(#filter9_d_575_2469)">
<circle cx="1625.5" cy="224.5" r="212.5" fill="white"/>
<circle cx="1625.5" cy="224.5" r="209.5" stroke="url(#paint2_radial_575_2469)" stroke-width="6"/>
</g>
<circle cx="1625.5" cy="224.5" r="212" stroke="#555555" stroke-opacity="0.8"/>
</g>
<path d="M689.707 225.707C690.098 225.317 690.098 224.683 689.707 224.293L683.343 217.929C682.953 217.538 682.319 217.538 681.929 217.929C681.538 218.319 681.538 218.953 681.929 219.343L687.586 225L681.929 230.657C681.538 231.047 681.538 231.681 681.929 232.071C682.319 232.462 682.953 232.462 683.343 232.071L689.707 225.707ZM450 226H689V224H450V226Z" fill="#CBB5A7" fill-opacity="0.45"/>
<path d="M1389.71 225.707C1390.1 225.317 1390.1 224.683 1389.71 224.293L1383.34 217.929C1382.95 217.538 1382.32 217.538 1381.93 217.929C1381.54 218.319 1381.54 218.953 1381.93 219.343L1387.59 225L1381.93 230.657C1381.54 231.047 1381.54 231.681 1381.93 232.071C1382.32 232.462 1382.95 232.462 1383.34 232.071L1389.71 225.707ZM1150 226H1389V224H1150V226Z" fill="#CBB5A7" fill-opacity="0.45"/>
<g filter="url(#filter10_d_575_2469)">
<path d="M1625 248.276C1622.84 248.276 1620.8 247.465 1619.27 245.989L1565.87 194.579C1549.36 178.689 1549.36 152.831 1565.87 136.938C1573.87 129.239 1584.5 125 1595.8 125C1606.77 125 1617.1 128.985 1625 136.244C1632.91 128.985 1643.24 125.003 1654.2 125.003C1665.51 125.003 1676.14 129.242 1684.14 136.941C1692.13 144.643 1696.54 154.877 1696.54 165.761C1696.54 176.651 1692.13 186.885 1684.13 194.582L1630.73 245.989C1629.2 247.465 1627.16 248.276 1625 248.276ZM1595.8 135.359C1587.37 135.359 1579.44 138.521 1573.47 144.262C1561.17 156.115 1561.17 175.403 1573.47 187.253L1625 236.858L1676.53 187.256C1682.49 181.514 1685.78 173.88 1685.78 165.759C1685.78 157.64 1682.49 150.006 1676.53 144.262C1670.56 138.521 1662.64 135.359 1654.2 135.359C1645.77 135.359 1637.84 138.521 1631.87 144.262L1625.01 150.879L1618.13 144.262C1612.17 138.521 1604.24 135.359 1595.8 135.359ZM1701.51 325H1644.12V273.295C1644.12 265.205 1646.76 257.485 1651.74 250.969C1652.9 249.454 1654.19 248.014 1655.57 246.686L1676.76 226.287C1679.72 223.438 1684.54 223.436 1687.49 226.287L1688 226.777C1689.99 228.683 1691.61 230.911 1692.79 233.359C1696.99 242.081 1695.07 252.51 1688 259.311L1680.78 266.264C1680.41 266.616 1680.21 267.091 1680.21 267.587V270.153L1702.49 248.701C1703.14 248.074 1703.51 247.209 1703.51 246.326V211.272C1703.51 208.581 1704 205.943 1704.94 203.431C1707.08 197.762 1711.55 193.031 1717.23 190.456C1720.43 189.004 1723.85 188.268 1727.41 188.268C1729.43 188.268 1731.34 189.03 1732.78 190.41C1734.21 191.79 1735 193.626 1735 195.579V255.475C1735 262.154 1732.19 268.693 1727.28 273.414L1710.04 290.014C1709.02 290.995 1708.07 292.049 1707.23 293.152C1703.54 297.948 1701.51 303.868 1701.51 309.83V325H1701.51ZM1654.88 314.641H1690.75V309.83C1690.75 301.665 1693.53 293.556 1698.58 286.997C1699.74 285.487 1701.04 284.034 1702.43 282.69L1719.68 266.09C1722.58 263.296 1724.24 259.427 1724.24 255.475V198.995C1723.41 199.191 1722.6 199.471 1721.82 199.826C1718.7 201.242 1716.23 203.842 1715.06 206.963C1714.54 208.344 1714.27 209.803 1714.28 211.272V246.328C1714.28 249.938 1712.75 253.473 1710.1 256.027L1687.03 278.238C1684.08 281.084 1679.67 281.929 1675.81 280.388C1671.95 278.847 1669.45 275.252 1669.45 271.226V267.587C1669.45 264.322 1670.77 261.248 1673.17 258.938L1680.39 251.987C1684.28 248.245 1685.34 242.511 1683.03 237.718C1682.72 237.092 1682.37 236.491 1681.97 235.921L1663.18 254.009C1662.18 254.97 1661.25 256.014 1660.41 257.112C1656.79 261.833 1654.88 267.427 1654.88 273.29V314.641H1654.88ZM1605.88 325H1548.49V309.83C1548.49 303.871 1546.46 297.951 1542.78 293.16C1541.92 292.045 1540.98 290.993 1539.96 290.014L1522.72 273.414C1517.81 268.69 1515 262.151 1515 255.475V195.579C1515 193.626 1515.79 191.79 1517.22 190.41C1518.66 189.03 1520.57 188.268 1522.59 188.268C1526.15 188.268 1529.57 189.004 1532.77 190.456C1538.45 193.031 1542.92 197.762 1545.06 203.436C1546.01 205.943 1546.49 208.581 1546.49 211.272V246.328C1546.49 247.212 1546.86 248.077 1547.51 248.703L1569.79 270.156V267.59C1569.79 267.098 1569.59 266.613 1569.22 266.264L1562 259.308C1554.94 252.51 1553.02 242.081 1557.22 233.359C1558.4 230.911 1560.02 228.683 1562 226.777L1562.51 226.287C1565.47 223.436 1570.29 223.436 1573.25 226.287L1594.44 246.686C1595.82 248.012 1597.1 249.454 1598.26 250.969C1603.25 257.482 1605.89 265.202 1605.89 273.295V325H1605.88ZM1559.25 314.641H1595.12V273.295C1595.12 267.432 1593.21 261.838 1589.6 257.117C1588.76 256.019 1587.83 254.975 1586.83 254.012L1568.04 235.923C1567.63 236.493 1567.28 237.094 1566.98 237.72C1564.67 242.514 1565.72 248.247 1569.61 251.984L1576.83 258.938C1579.23 261.25 1580.55 264.322 1580.55 267.59V271.228C1580.55 275.252 1578.06 278.85 1574.19 280.39C1570.33 281.931 1565.93 281.084 1562.97 278.238L1539.9 256.029C1537.25 253.476 1535.73 249.941 1535.73 246.331V211.272C1535.73 209.791 1535.47 208.343 1534.95 206.968C1533.77 203.842 1531.31 201.242 1528.19 199.826C1527.41 199.473 1526.6 199.194 1525.76 198.995V255.475C1525.76 259.427 1527.43 263.296 1530.33 266.09L1547.57 282.69C1548.97 284.034 1550.27 285.487 1551.43 287.004C1556.47 293.556 1559.25 301.667 1559.25 309.83V314.641H1559.25Z" fill="#2C2C2C" fill-opacity="0.95" shape-rendering="crispEdges"/>
</g>
<g filter="url(#filter11_d_575_2469)">
<path d="M312.739 112C320.443 112 326.254 119.411 323.146 133.194L285.437 328.094C282.802 341.952 275.165 345.286 264.623 338.839L174.676 265.993C174.327 265.718 174.043 265.357 173.847 264.938C173.651 264.519 173.549 264.055 173.549 263.584C173.549 263.113 173.651 262.649 173.847 262.231C174.043 261.812 174.327 261.45 174.676 261.176L278.544 158.316C283.275 153.722 277.53 151.499 271.313 155.649L140.954 245.836C140.559 246.119 140.11 246.299 139.642 246.363C139.173 246.427 138.698 246.374 138.251 246.206L82.9045 227.013C70.6052 223.085 70.6052 213.822 85.6752 207.226L307.13 113.556C308.888 112.64 310.794 112.111 312.739 112Z" stroke="#2C2C2C" stroke-opacity="0.95" stroke-width="10.4167" stroke-linecap="round" stroke-linejoin="round" shape-rendering="crispEdges"/>
</g>
<defs>
<filter id="filter0_bi_575_2469" x="-4" y="-4" width="458" height="458" filterUnits="userSpaceOnUse" color-interpolation-filters="sRGB">
<feFlood flood-opacity="0" result="BackgroundImageFix"/>
<feGaussianBlur in="BackgroundImageFix" stdDeviation="2"/>
<feComposite in2="SourceAlpha" operator="in" result="effect1_backgroundBlur_575_2469"/>
<feBlend mode="normal" in="SourceGraphic" in2="effect1_backgroundBlur_575_2469" result="shape"/>
<feColorMatrix in="SourceAlpha" type="matrix" values="0 0 0 0 0 0 0 0 0 0 0 0 0 0 0 0 0 0 127 0" result="hardAlpha"/>
<feOffset dy="4"/>
<feGaussianBlur stdDeviation="2"/>
<feComposite in2="hardAlpha" operator="arithmetic" k2="-1" k3="1"/>
<feColorMatrix type="matrix" values="0 0 0 0 0 0 0 0 0 0 0 0 0 0 0 0 0 0 0.25 0"/>
<feBlend mode="normal" in2="shape" result="effect2_innerShadow_575_2469"/>
</filter>
<filter id="filter1_b_575_2469" x="-4" y="-4" width="458" height="458" filterUnits="userSpaceOnUse" color-interpolation-filters="sRGB">
<feFlood flood-opacity="0" result="BackgroundImageFix"/>
<feGaussianBlur in="BackgroundImageFix" stdDeviation="2"/>
<feComposite in2="SourceAlpha" operator="in" result="effect1_backgroundBlur_575_2469"/>
<feBlend mode="normal" in="SourceGraphic" in2="effect1_backgroundBlur_575_2469" result="shape"/>
</filter>
<filter id="filter2_d_575_2469" x="9" y="12" width="433" height="433" filterUnits="userSpaceOnUse" color-interpolation-filters="sRGB">
<feFlood flood-opacity="0" result="BackgroundImageFix"/>
<feColorMatrix in="SourceAlpha" type="matrix" values="0 0 0 0 0 0 0 0 0 0 0 0 0 0 0 0 0 0 127 0" result="hardAlpha"/>
<feOffset dy="4"/>
<feGaussianBlur stdDeviation="2"/>
<feComposite in2="hardAlpha" operator="out"/>
<feColorMatrix type="matrix" values="0 0 0 0 0 0 0 0 0 0 0 0 0 0 0 0 0 0 0.25 0"/>
<feBlend mode="normal" in2="BackgroundImageFix" result="effect1_dropShadow_575_2469"/>
<feBlend mode="normal" in="SourceGraphic" in2="effect1_dropShadow_575_2469" result="shape"/>
</filter>
<filter id="filter3_bi_575_2469" x="696" y="-4" width="458" height="458" filterUnits="userSpaceOnUse" color-interpolation-filters="sRGB">
<feFlood flood-opacity="0" result="BackgroundImageFix"/>
<feGaussianBlur in="BackgroundImageFix" stdDeviation="2"/>
<feComposite in2="SourceAlpha" operator="in" result="effect1_backgroundBlur_575_2469"/>
<feBlend mode="normal" in="SourceGraphic" in2="effect1_backgroundBlur_575_2469" result="shape"/>
<feColorMatrix in="SourceAlpha" type="matrix" values="0 0 0 0 0 0 0 0 0 0 0 0 0 0 0 0 0 0 127 0" result="hardAlpha"/>
<feOffset dy="4"/>
<feGaussianBlur stdDeviation="2"/>
<feComposite in2="hardAlpha" operator="arithmetic" k2="-1" k3="1"/>
<feColorMatrix type="matrix" values="0 0 0 0 0 0 0 0 0 0 0 0 0 0 0 0 0 0 0.25 0"/>
<feBlend mode="normal" in2="shape" result="effect2_innerShadow_575_2469"/>
</filter>
<filter id="filter4_b_575_2469" x="696" y="-4" width="458" height="458" filterUnits="userSpaceOnUse" color-interpolation-filters="sRGB">
<feFlood flood-opacity="0" result="BackgroundImageFix"/>
<feGaussianBlur in="BackgroundImageFix" stdDeviation="2"/>
<feComposite in2="SourceAlpha" operator="in" result="effect1_backgroundBlur_575_2469"/>
<feBlend mode="normal" in="SourceGraphic" in2="effect1_backgroundBlur_575_2469" result="shape"/>
</filter>
<filter id="filter5_d_575_2469" x="709" y="12" width="433" height="433" filterUnits="userSpaceOnUse" color-interpolation-filters="sRGB">
<feFlood flood-opacity="0" result="BackgroundImageFix"/>
<feColorMatrix in="SourceAlpha" type="matrix" values="0 0 0 0 0 0 0 0 0 0 0 0 0 0 0 0 0 0 127 0" result="hardAlpha"/>
<feOffset dy="4"/>
<feGaussianBlur stdDeviation="2"/>
<feComposite in2="hardAlpha" operator="out"/>
<feColorMatrix type="matrix" values="0 0 0 0 0 0 0 0 0 0 0 0 0 0 0 0 0 0 0.25 0"/>
<feBlend mode="normal" in2="BackgroundImageFix" result="effect1_dropShadow_575_2469"/>
<feBlend mode="normal" in="SourceGraphic" in2="effect1_dropShadow_575_2469" result="shape"/>
</filter>
<filter id="filter6_d_575_2469" x="786" y="103" width="280" height="244.725" filterUnits="userSpaceOnUse" color-interpolation-filters="sRGB">
<feFlood flood-opacity="0" result="BackgroundImageFix"/>
<feColorMatrix in="SourceAlpha" type="matrix" values="0 0 0 0 0 0 0 0 0 0 0 0 0 0 0 0 0 0 127 0" result="hardAlpha"/>
<feOffset dx="1" dy="1"/>
<feGaussianBlur stdDeviation="2.5"/>
<feComposite in2="hardAlpha" operator="out"/>
<feColorMatrix type="matrix" values="0 0 0 0 0.0353516 0 0 0 0 0.0353516 0 0 0 0 0.0353516 0 0 0 0.2 0"/>
<feBlend mode="normal" in2="BackgroundImageFix" result="effect1_dropShadow_575_2469"/>
<feBlend mode="normal" in="SourceGraphic" in2="effect1_dropShadow_575_2469" result="shape"/>
</filter>
<filter id="filter7_bi_575_2469" x="1396" y="-4" width="458" height="458" filterUnits="userSpaceOnUse" color-interpolation-filters="sRGB">
<feFlood flood-opacity="0" result="BackgroundImageFix"/>
<feGaussianBlur in="BackgroundImageFix" stdDeviation="2"/>
<feComposite in2="SourceAlpha" operator="in" result="effect1_backgroundBlur_575_2469"/>
<feBlend mode="normal" in="SourceGraphic" in2="effect1_backgroundBlur_575_2469" result="shape"/>
<feColorMatrix in="SourceAlpha" type="matrix" values="0 0 0 0 0 0 0 0 0 0 0 0 0 0 0 0 0 0 127 0" result="hardAlpha"/>
<feOffset dy="4"/>
<feGaussianBlur stdDeviation="2"/>
<feComposite in2="hardAlpha" operator="arithmetic" k2="-1" k3="1"/>
<feColorMatrix type="matrix" values="0 0 0 0 0 0 0 0 0 0 0 0 0 0 0 0 0 0 0.25 0"/>
<feBlend mode="normal" in2="shape" result="effect2_innerShadow_575_2469"/>
</filter>
<filter id="filter8_b_575_2469" x="1396" y="-4" width="458" height="458" filterUnits="userSpaceOnUse" color-interpolation-filters="sRGB">
<feFlood flood-opacity="0" result="BackgroundImageFix"/>
<feGaussianBlur in="BackgroundImageFix" stdDeviation="2"/>
<feComposite in2="SourceAlpha" operator="in" result="effect1_backgroundBlur_575_2469"/>
<feBlend mode="normal" in="SourceGraphic" in2="effect1_backgroundBlur_575_2469" result="shape"/>
</filter>
<filter id="filter9_d_575_2469" x="1409" y="12" width="433" height="433" filterUnits="userSpaceOnUse" color-interpolation-filters="sRGB">
<feFlood flood-opacity="0" result="BackgroundImageFix"/>
<feColorMatrix in="SourceAlpha" type="matrix" values="0 0 0 0 0 0 0 0 0 0 0 0 0 0 0 0 0 0 127 0" result="hardAlpha"/>
<feOffset dy="4"/>
<feGaussianBlur stdDeviation="2"/>
<feComposite in2="hardAlpha" operator="out"/>
<feColorMatrix type="matrix" values="0 0 0 0 0 0 0 0 0 0 0 0 0 0 0 0 0 0 0.25 0"/>
<feBlend mode="normal" in2="BackgroundImageFix" result="effect1_dropShadow_575_2469"/>
<feBlend mode="normal" in="SourceGraphic" in2="effect1_dropShadow_575_2469" result="shape"/>
</filter>
<filter id="filter10_d_575_2469" x="1512" y="124" width="228" height="208" filterUnits="userSpaceOnUse" color-interpolation-filters="sRGB">
<feFlood flood-opacity="0" result="BackgroundImageFix"/>
<feColorMatrix in="SourceAlpha" type="matrix" values="0 0 0 0 0 0 0 0 0 0 0 0 0 0 0 0 0 0 127 0" result="hardAlpha"/>
<feOffset dx="1" dy="3"/>
<feGaussianBlur stdDeviation="2"/>
<feComposite in2="hardAlpha" operator="out"/>
<feColorMatrix type="matrix" values="0 0 0 0 0.0353516 0 0 0 0 0.0353516 0 0 0 0 0.0353516 0 0 0 0.2 0"/>
<feBlend mode="normal" in2="BackgroundImageFix" result="effect1_dropShadow_575_2469"/>
<feBlend mode="normal" in="SourceGraphic" in2="effect1_dropShadow_575_2469" result="shape"/>
</filter>
<filter id="filter11_d_575_2469" x="65.7852" y="105.791" width="268.422" height="248.424" filterUnits="userSpaceOnUse" color-interpolation-filters="sRGB">
<feFlood flood-opacity="0" result="BackgroundImageFix"/>
<feColorMatrix in="SourceAlpha" type="matrix" values="0 0 0 0 0 0 0 0 0 0 0 0 0 0 0 0 0 0 127 0" result="hardAlpha"/>
<feOffset dx="1" dy="3"/>
<feGaussianBlur stdDeviation="2"/>
<feComposite in2="hardAlpha" operator="out"/>
<feColorMatrix type="matrix" values="0 0 0 0 0.0353516 0 0 0 0 0.0353516 0 0 0 0 0.0353516 0 0 0 0.2 0"/>
<feBlend mode="normal" in2="BackgroundImageFix" result="effect1_dropShadow_575_2469"/>
<feBlend mode="normal" in="SourceGraphic" in2="effect1_dropShadow_575_2469" result="shape"/>
</filter>
<radialGradient id="paint0_radial_575_2469" cx="0" cy="0" r="1" gradientUnits="userSpaceOnUse" gradientTransform="translate(225.5 224.5) rotate(90) scale(212.5)">
<stop stop-color="#C2C2C2"/>
<stop offset="1" stop-color="#3D3D3D"/>
</radialGradient>
<radialGradient id="paint1_radial_575_2469" cx="0" cy="0" r="1" gradientUnits="userSpaceOnUse" gradientTransform="translate(925.5 224.5) rotate(90) scale(212.5)">
<stop stop-color="#C2C2C2"/>
<stop offset="1" stop-color="#3D3D3D"/>
</radialGradient>
<radialGradient id="paint2_radial_575_2469" cx="0" cy="0" r="1" gradientUnits="userSpaceOnUse" gradientTransform="translate(1625.5 224.5) rotate(90) scale(212.5)">
<stop stop-color="#C2C2C2"/>
<stop offset="1" stop-color="#3D3D3D"/>
</radialGradient>
<clipPath id="clip0_575_2469">
<rect width="450" height="450" fill="white"/>
</clipPath>
<clipPath id="clip1_575_2469">
<rect width="450" height="450" fill="white" transform="translate(700)"/>
</clipPath>
<clipPath id="clip2_575_2469">
<rect width="450" height="450" fill="white" transform="translate(1400)"/>
</clipPath>
</defs>
</svg>
