<svg width="300" height="107" viewBox="0 0 300 107" fill="none" xmlns="http://www.w3.org/2000/svg">
<path d="M44.8047 31.3718C46.2394 31.3718 47.4024 30.2244 47.4024 28.809C47.4024 27.3935 46.2394 26.2461 44.8047 26.2461C43.37 26.2461 42.207 27.3935 42.207 28.809C42.207 30.2244 43.37 31.3718 44.8047 31.3718Z" fill="#131212"/>
<path d="M79.2266 31.3718C80.6613 31.3718 81.8243 30.2244 81.8243 28.809C81.8243 27.3935 80.6613 26.2461 79.2266 26.2461C77.7919 26.2461 76.6289 27.3935 76.6289 28.809C76.6289 30.2244 77.7919 31.3718 79.2266 31.3718Z" fill="#131212"/>
<g filter="url(#filter0_i_574_1602)">
<path fill-rule="evenodd" clip-rule="evenodd" d="M74.4377 48.4118L74.6672 52.4263L70.3798 50.6745L74.4388 48.4118H74.4377ZM84.9162 27.1685C84.9162 27.1685 91.0943 35.5537 75.0962 30.5309C75.0962 30.5309 78.5887 26.811 84.9162 27.1685ZM76.5377 40.8165C81.646 46.7194 80.8142 56.556 80.8142 56.556C79.4684 54.4703 75.8635 52.8967 75.8635 52.8967C77.4472 45.8928 76.5377 40.8165 76.5377 40.8165ZM88.337 48.4688L82.5174 56.2602L82.1803 48.2123L88.337 48.4677V48.4688ZM87.8469 51.6817L89.262 62.6264L82.9632 57.6582L87.8456 51.6817H87.8469ZM96.3749 51.1057C95.7414 60.0764 89.4844 66.2156 89.4844 66.2156C91.9405 57.5964 90.1178 48.7445 90.1178 48.7445L96.3737 51.1057H96.3749ZM49.2123 48.4107L48.9841 52.4252L53.2713 50.6733L49.2123 48.4107ZM38.7337 27.1674C38.7337 27.1674 32.5557 35.5526 48.5538 30.5297C48.5538 30.5297 45.0613 26.8099 38.7337 27.1674ZM47.1135 40.8153C42.0051 46.7181 42.8369 56.5548 42.8369 56.5548C44.1828 54.4692 47.7864 52.8954 47.7864 52.8954C46.2027 45.8916 47.1135 40.8153 47.1135 40.8153ZM35.313 48.4677L41.1337 56.2591L41.4708 48.2111L35.313 48.4665V48.4677ZM35.803 51.6805L34.3868 62.6251L40.6855 57.657L35.803 51.6805ZM27.2751 51.1044C27.9085 60.0752 34.1656 66.2144 34.1656 66.2144C31.7106 57.5952 33.5321 48.7432 33.5321 48.7432L27.2751 51.1044ZM61.8256 20.8665C61.8256 20.8665 79.9201 0.719449 92.9075 15.0432C101.531 -1.99446 109.296 31.316 112.074 32.9076C99.4585 29.8812 96.6354 5.13773 73.1886 21.3393C96.3485 10.1582 96.8553 30.7673 102.174 35.8982C102.174 35.8982 95.739 32.7306 88.7708 34.1083C88.7708 34.1083 90.474 29.4655 87.4249 25.8847C87.4249 25.8847 91.662 25.8454 93.6413 28.6388C89.6588 6.52259 70.1468 38.7962 66.0807 25.058C66.0807 25.058 64.8531 28.4418 65.8427 30.8029C65.8427 30.8029 62.7578 28.2053 61.8256 21.7917C60.8933 28.2053 57.8073 30.8029 57.8073 30.8029C58.798 28.4418 57.5693 25.058 57.5693 25.058C53.5032 38.7962 33.9923 6.52259 30.0098 28.6388C31.9903 25.8454 36.2274 25.8847 36.2274 25.8847C33.1783 29.4655 34.8815 34.1083 34.8815 34.1083C27.9122 32.7318 21.4782 35.8982 21.4782 35.8982C26.7983 30.7673 27.3026 10.1582 50.4637 21.3393C27.0157 5.13773 24.1927 29.8812 11.5782 32.9076C14.3559 31.3149 22.1189 -1.99446 30.7448 15.0432C43.7334 0.719449 61.8268 20.8665 61.8268 20.8665H61.8256ZM74.5344 9.29709C74.5344 9.29709 67.173 8.35286 61.8256 13.783C56.4782 8.35286 49.1167 9.29709 49.1167 9.29709C53.6502 4.71135 70.001 4.71135 74.5344 9.29709ZM117.345 55.0927C123.308 46.9699 118.15 42.4852 115.19 40.7488C119.322 40.6704 122.534 38.4981 123.65 34.5584C110.186 33.4171 114.692 -6.62533 91.8892 7.4395C90.3067 1.2076 80.1783 4.42154 78.6174 4.9572C69.7356 -1.6524 53.9096 -1.6524 45.029 4.9572C43.4692 4.42154 33.3409 1.2076 31.7573 7.4395C8.95709 -6.62296 13.463 33.4194 0 34.5609C1.11515 38.5004 4.32788 40.6728 8.45859 40.7511C5.50164 42.4876 0.34183 46.9724 6.30368 55.0952C-28.5146 124.302 152.165 124.302 117.345 55.0952V55.0927ZM112.687 59.2521C112.687 59.2521 116.886 77.038 100.414 88.37C100.414 88.37 103.819 78.2186 98.5909 70.5056C98.5909 70.5056 101.679 84.6702 83.1472 98.2077C83.1472 98.2077 89.3254 92.3832 88.6907 82.9398C84.0365 106.453 39.6111 106.453 34.9568 82.9398C34.3234 92.3832 40.5003 98.2077 40.5003 98.2077C21.9671 84.6702 25.0568 70.5056 25.0568 70.5056C19.83 78.2186 23.2353 88.37 23.2353 88.37C6.76256 77.0368 10.9615 59.2521 10.9615 59.2521C13.7332 64.3675 18.3264 65.6265 18.3264 65.6265C-1.74026 40.8485 20.0034 39.32 45.4115 37.4909C41.3729 35.4836 38.007 35.9575 38.007 35.9575C43.1741 33.4859 51.9781 29.9691 56.6574 34.6191C56.6574 34.6191 51.5084 34.7758 50.4004 39.6549C50.5534 39.7939 64.932 49.4927 58.7169 49.4927L56.3013 48.2337L54.5191 49.6102C54.5191 49.6102 51.984 47.6422 48.7378 46.3049C48.7378 46.3049 47.8666 40.5207 49.0546 37.0574C49.0546 37.0574 45.2525 38.5527 43.1142 44.8488C43.1142 44.8488 34.2446 41.3854 21.8106 46.2645C21.8106 46.2645 17.4552 61.1382 36.6207 74.8325C36.9278 47.6101 86.721 47.6101 87.0293 74.8325C106.195 61.1393 101.838 46.2645 101.838 46.2645C89.4043 41.3854 80.5344 44.8488 80.5344 44.8488C78.3963 38.5527 74.5942 37.0574 74.5942 37.0574C75.7822 40.5207 74.911 46.3049 74.911 46.3049C71.6635 47.6422 69.1297 49.6102 69.1297 49.6102L67.3475 48.2337L64.932 49.4927C58.7169 49.4927 73.0954 39.7939 73.2471 39.6549C72.1381 34.7758 66.9901 34.6191 66.9901 34.6191C71.6706 29.9691 80.4747 33.4859 85.6418 35.9575C85.6418 35.9575 82.2759 35.4848 78.2373 37.4909C103.645 39.32 125.389 40.8485 105.324 65.6265C105.324 65.6265 109.917 64.3675 112.689 59.2521H112.687Z" fill="#131212"/>
</g>
<path d="M138.682 60.6162V18.1699H156.569C159.78 18.1699 162.468 18.619 164.633 19.5171C166.811 20.4152 168.445 21.6726 169.534 23.2892C170.637 24.9058 171.188 26.778 171.188 28.9058C171.188 30.5225 170.846 31.9663 170.162 33.2375C169.478 34.4949 168.535 35.5381 167.334 36.3671C166.134 37.1961 164.744 37.7765 163.166 38.1081V38.5226C164.898 38.6055 166.497 39.0684 167.963 39.9112C169.443 40.7541 170.63 41.9285 171.523 43.4346C172.417 44.9268 172.864 46.6954 172.864 48.7404C172.864 51.0202 172.277 53.0582 171.105 54.8545C169.932 56.6369 168.235 58.0462 166.015 59.0825C163.795 60.105 161.1 60.6162 157.93 60.6162H138.682ZM149.049 52.3466H155.459C157.707 52.3466 159.361 51.9252 160.423 51.0824C161.498 50.2395 162.035 49.0651 162.035 47.559C162.035 46.4674 161.777 45.5279 161.26 44.7403C160.744 43.9389 160.011 43.324 159.061 42.8957C158.112 42.4536 156.974 42.2325 155.647 42.2325H149.049V52.3466ZM149.049 35.621H154.788C155.919 35.621 156.925 35.4344 157.804 35.0614C158.684 34.6883 159.368 34.1495 159.857 33.4448C160.36 32.7401 160.611 31.8904 160.611 30.8955C160.611 29.4723 160.101 28.3532 159.082 27.5379C158.063 26.7227 156.687 26.3151 154.956 26.3151H149.049V35.621Z" fill="#131312"/>
<path d="M187.127 60.6162H175.985L190.458 18.1699H204.261L218.734 60.6162H207.591L197.516 28.8644H197.181L187.127 60.6162ZM185.64 43.9113H208.931V51.7041H185.64V43.9113Z" fill="#131312"/>
<path d="M223.352 60.6162V18.1699H241.071C244.283 18.1699 247.055 18.7433 249.387 19.8902C251.732 21.0232 253.541 22.6536 254.811 24.7814C256.082 26.8955 256.717 29.4033 256.717 32.3049C256.717 35.2479 256.068 37.7488 254.769 39.8076C253.471 41.8525 251.628 43.4139 249.24 44.4916C246.852 45.5555 244.025 46.0875 240.757 46.0875H229.552V38.0044H238.83C240.394 38.0044 241.7 37.8041 242.747 37.4034C243.808 36.9889 244.611 36.3671 245.156 35.5381C245.7 34.6952 245.973 33.6175 245.973 32.3049C245.973 30.9922 245.7 29.9076 245.156 29.0509C244.611 28.1804 243.808 27.531 242.747 27.1027C241.686 26.6606 240.38 26.4395 238.83 26.4395H233.72V60.6162H223.352ZM247.502 41.2169L258.184 60.6162H246.873L236.401 41.2169H247.502Z" fill="#131312"/>
<path d="M262.404 60.6162V18.1699H272.772V36.1184H273.337L287.517 18.1699H299.728L284.522 37.1132L300 60.6162H287.601L276.919 43.932L272.772 49.1134V60.6162H262.404Z" fill="#131312"/>
<path d="M147.22 73.8348V75.1794H143.783V86.4992H142.137V75.1794H138.682V73.8348H147.22Z" fill="#CBB5A7"/>
<path d="M160.334 86.4992L157.332 81.3208H155.342V86.4992H153.696V73.8348H157.766C158.718 73.8348 159.52 73.9983 160.172 74.3254C160.835 74.6525 161.329 75.0946 161.655 75.6518C161.98 76.209 162.143 76.8449 162.143 77.5596C162.143 78.4318 161.89 79.201 161.383 79.8672C160.889 80.5334 160.141 80.9755 159.14 81.1936L162.306 86.4992H160.334ZM155.342 79.9944H157.766C158.658 79.9944 159.327 79.7763 159.774 79.3403C160.22 78.8921 160.443 78.2985 160.443 77.5596C160.443 76.8086 160.22 76.2272 159.774 75.8153C159.339 75.4035 158.67 75.1975 157.766 75.1975H155.342V79.9944Z" fill="#CBB5A7"/>
<path d="M176.603 83.6829H171.104L170.091 86.4992H168.355L172.913 73.9075H174.813L179.353 86.4992H177.616L176.603 83.6829ZM176.133 82.3383L173.854 75.9425L171.575 82.3383H176.133Z" fill="#CBB5A7"/>
<path d="M189.715 73.8348C191.09 73.8348 192.277 74.0952 193.278 74.6161C194.291 75.1249 195.063 75.8577 195.594 76.8147C196.136 77.7716 196.408 78.8981 196.408 80.1942C196.408 81.4904 196.136 82.6169 195.594 83.5738C195.063 84.5187 194.291 85.2455 193.278 85.7542C192.277 86.2509 191.09 86.4992 189.715 86.4992H185.789V73.8348H189.715ZM189.715 85.1364C191.343 85.1364 192.585 84.7064 193.441 83.8464C194.297 82.9742 194.725 81.7569 194.725 80.1942C194.725 78.6195 194.291 77.39 193.423 76.5058C192.567 75.6215 191.331 75.1794 189.715 75.1794H187.436V85.1364H189.715Z" fill="#CBB5A7"/>
<path d="M204.675 73.8348V86.4992H203.029V73.8348H204.675Z" fill="#CBB5A7"/>
<path d="M221.843 86.4992H220.197L213.576 76.4149V86.4992H211.93V73.8166H213.576L220.197 83.8827V73.8166H221.843V86.4992Z" fill="#CBB5A7"/>
<path d="M238.65 77.5051C238.3 76.7662 237.793 76.1969 237.13 75.7972C236.467 75.3853 235.695 75.1794 234.815 75.1794C233.935 75.1794 233.139 75.3853 232.427 75.7972C231.728 76.1969 231.173 76.7783 230.763 77.5415C230.365 78.2925 230.166 79.1646 230.166 80.1579C230.166 81.1512 230.365 82.0233 230.763 82.7744C231.173 83.5254 231.728 84.1068 232.427 84.5187C233.139 84.9184 233.935 85.1183 234.815 85.1183C236.045 85.1183 237.058 84.7488 237.854 84.0099C238.65 83.271 239.114 82.2717 239.247 81.0119H234.218V79.6673H241.001V80.9392C240.905 81.9809 240.579 82.9379 240.024 83.81C239.47 84.6701 238.74 85.3545 237.836 85.8632C236.931 86.3599 235.924 86.6082 234.815 86.6082C233.645 86.6082 232.578 86.3356 231.613 85.7905C230.648 85.2333 229.883 84.4642 229.316 83.483C228.761 82.5018 228.484 81.3935 228.484 80.1579C228.484 78.9224 228.761 77.814 229.316 76.8328C229.883 75.8395 230.648 75.0704 231.613 74.5253C232.578 73.9681 233.645 73.6895 234.815 73.6895C236.153 73.6895 237.335 74.0226 238.36 74.6888C239.397 75.355 240.151 76.2938 240.621 77.5051H238.65Z" fill="#CBB5A7"/>
<path d="M263.213 79.9762C263.671 80.0489 264.087 80.2366 264.461 80.5395C264.847 80.8423 265.148 81.2178 265.366 81.666C265.595 82.1142 265.709 82.5927 265.709 83.1014C265.709 83.7434 265.546 84.3249 265.221 84.8457C264.895 85.3545 264.419 85.7603 263.792 86.0631C263.177 86.3538 262.447 86.4992 261.603 86.4992H256.9V73.8348H261.422C262.278 73.8348 263.008 73.9802 263.611 74.2709C264.214 74.5495 264.666 74.9311 264.968 75.4156C265.269 75.9001 265.42 76.4452 265.42 77.0509C265.42 77.8019 265.215 78.4257 264.805 78.9224C264.407 79.4069 263.876 79.7582 263.213 79.9762ZM258.546 79.3039H261.314C262.085 79.3039 262.682 79.1222 263.104 78.7588C263.527 78.3954 263.738 77.8927 263.738 77.2507C263.738 76.6087 263.527 76.106 263.104 75.7426C262.682 75.3792 262.073 75.1975 261.277 75.1975H258.546V79.3039ZM261.458 85.1364C262.278 85.1364 262.918 84.9426 263.376 84.555C263.834 84.1674 264.063 83.6283 264.063 82.9379C264.063 82.2353 263.822 81.6842 263.34 81.2844C262.857 80.8726 262.212 80.6667 261.404 80.6667H258.546V85.1364H261.458Z" fill="#CBB5A7"/>
<path d="M278.159 86.6264C276.99 86.6264 275.922 86.3538 274.958 85.8087C273.993 85.2515 273.227 84.4823 272.66 83.5012C272.106 82.5079 271.828 81.3935 271.828 80.1579C271.828 78.9224 272.106 77.814 272.66 76.8328C273.227 75.8395 273.993 75.0704 274.958 74.5253C275.922 73.9681 276.99 73.6895 278.159 73.6895C279.341 73.6895 280.415 73.9681 281.379 74.5253C282.344 75.0704 283.104 75.8335 283.659 76.8147C284.213 77.7958 284.491 78.9102 284.491 80.1579C284.491 81.4056 284.213 82.52 283.659 83.5012C283.104 84.4823 282.344 85.2515 281.379 85.8087C280.415 86.3538 279.341 86.6264 278.159 86.6264ZM278.159 85.1909C279.04 85.1909 279.83 84.985 280.529 84.5732C281.241 84.1613 281.795 83.5738 282.193 82.8107C282.603 82.0476 282.808 81.1633 282.808 80.1579C282.808 79.1404 282.603 78.2561 282.193 77.5051C281.795 76.742 281.247 76.1545 280.547 75.7426C279.848 75.3308 279.052 75.1249 278.159 75.1249C277.267 75.1249 276.471 75.3308 275.772 75.7426C275.072 76.1545 274.518 76.742 274.108 77.5051C273.71 78.2561 273.511 79.1404 273.511 80.1579C273.511 81.1633 273.71 82.0476 274.108 82.8107C274.518 83.5738 275.072 84.1613 275.772 84.5732C276.483 84.985 277.279 85.1909 278.159 85.1909Z" fill="#CBB5A7"/>
<path d="M298.874 73.8348V75.1794H295.437V86.4992H293.791V75.1794H290.336V73.8348H298.874Z" fill="#CBB5A7"/>
<defs>
<filter id="filter0_i_574_1602" x="0" y="0" width="123.65" height="110" filterUnits="userSpaceOnUse" color-interpolation-filters="sRGB">
<feFlood flood-opacity="0" result="BackgroundImageFix"/>
<feBlend mode="normal" in="SourceGraphic" in2="BackgroundImageFix" result="shape"/>
<feColorMatrix in="SourceAlpha" type="matrix" values="0 0 0 0 0 0 0 0 0 0 0 0 0 0 0 0 0 0 127 0" result="hardAlpha"/>
<feOffset dy="3"/>
<feGaussianBlur stdDeviation="2.5"/>
<feComposite in2="hardAlpha" operator="arithmetic" k2="-1" k3="1"/>
<feColorMatrix type="matrix" values="0 0 0 0 0 0 0 0 0 0 0 0 0 0 0 0 0 0 0.25 0"/>
<feBlend mode="normal" in2="shape" result="effect1_innerShadow_574_1602"/>
</filter>
</defs>
</svg>
